<?xml version="1.0" encoding="UTF-8"?>
<svg width="512" height="512" viewBox="0 0 512 512" xmlns="http://www.w3.org/2000/svg">
  <defs>
    <style>
      .bg { fill: #1a1a1a; }
      .logo { fill: #f26430; }
    </style>
  </defs>
  <!-- Dark Background with rounded corners -->
  <rect class="bg" width="512" height="512" rx="110" ry="110"/>
  
  <!-- Davvvat Logo - Centered and scaled -->
  <g transform="translate(80, 180) scale(0.45)">
    <path class="logo" d="M404.53,155.37c-5.23,12.28-22.66,12.21-27.78-.12L316.61,10.64C313.93,4.2,307.63,0,300.66,0h-50.65c-12.39,0-20.76,12.67-15.89,24.06l108.66,254.39c2.71,6.36,8.96,10.48,15.89,10.48h57.69c6.91,0,13.15-4.12,15.87-10.46l52.83-123.27c1.62-3.79,1.62-8.07,0-11.86l-23.9-55.93c-5.22-12.21-22.53-12.2-27.72.02l-28.92,67.94Z"/>
    <path class="logo" d="M252.56,142.87c1.62,3.79,1.62,8.08,0,11.86l-53.03,123.74c-2.72,6.34-8.96,10.46-15.87,10.46h-57.69c-6.92,0-13.17-4.13-15.89-10.48L1.41,24.06C-3.46,12.67,4.9,0,17.29,0h50.65c6.97,0,13.27,4.2,15.94,10.64l60.14,144.6c5.13,12.33,22.57,12.4,27.8.12l29.11-68.37c5.2-12.22,22.52-12.23,27.74-.02l23.88,55.9Z"/>
    <path class="logo" d="M574.87,278.45L466.21,24.06C461.34,12.66,469.7,0,482.09,0h50.65c6.98,0,13.27,4.2,15.95,10.64l89.65,215.59c4.73,11.37-3.63,23.9-15.95,23.9h0c-12.38,0-20.74-12.64-15.89-24.04L698.3,10.51C701.01,4.14,707.26,0,714.19,0h43.29c12.4,0,20.76,12.68,15.87,24.07l-109.03,254.39c-2.72,6.35-8.97,10.47-15.87,10.47h-57.7c-6.92,0-13.17-4.13-15.88-10.49Z"/>
  </g>
</svg>
