<svg width="11" height="11" viewBox="0 0 11 11" fill="none" xmlns="http://www.w3.org/2000/svg">
<path d="M8.42646 10.2973C8.17788 10.2973 7.85894 10.217 7.46027 9.98091L6.05789 9.14515C5.91249 9.06015 5.63108 9.06015 5.49037 9.14515L4.08331 9.98091C3.25314 10.4767 2.76535 10.2784 2.54491 10.1178C2.32916 9.9573 1.99146 9.5465 2.21191 8.60214L2.54491 7.15254C2.58243 7.00144 2.50739 6.74174 2.39482 6.62842L1.23165 5.45741C0.650058 4.87191 0.69696 4.3714 0.776694 4.12585C0.856428 3.88031 1.1097 3.44591 1.91642 3.30897L3.41261 3.05872C3.55331 3.03511 3.75499 2.88401 3.81597 2.75652L4.64614 1.08972C5.02135 0.32951 5.51382 0.216187 5.77178 0.216187C6.02975 0.216187 6.52222 0.32951 6.89744 1.08972L7.72292 2.7518C7.78859 2.87929 7.99027 3.03039 8.13097 3.054L9.62716 3.30425C10.4386 3.44118 10.6918 3.87559 10.7669 4.12112C10.8419 4.36667 10.8888 4.86719 10.3119 5.45269L9.14875 6.62842C9.03619 6.74174 8.96583 6.99672 8.99867 7.15254L9.33167 8.60214C9.54742 9.5465 9.21442 9.9573 8.99867 10.1178C8.88141 10.2028 8.6938 10.2973 8.42646 10.2973ZM5.77178 8.37077C6.00161 8.37077 6.23143 8.42743 6.41435 8.53603L7.81673 9.37179C8.22478 9.61733 8.48274 9.61733 8.58124 9.5465C8.67973 9.47567 8.75008 9.22542 8.6469 8.76268L8.31389 7.31308C8.22478 6.92117 8.37018 6.41594 8.65159 6.12791L9.81477 4.9569C10.0446 4.72553 10.1478 4.49888 10.1009 4.34306C10.0493 4.18723 9.83353 4.05974 9.51459 4.0078L8.01841 3.75755C7.65726 3.69616 7.26328 3.40341 7.09912 3.07288L6.27364 1.4108C6.12355 1.10861 5.93594 0.92918 5.77178 0.92918C5.60763 0.92918 5.42002 1.10861 5.27462 1.4108L4.44446 3.07288C4.2803 3.40341 3.88632 3.69616 3.52517 3.75755L2.03368 4.0078C1.71474 4.05974 1.49899 4.18723 1.4474 4.34306C1.3958 4.49888 1.50368 4.73025 1.7335 4.9569L2.89668 6.12791C3.17809 6.41122 3.32349 6.92117 3.23438 7.31308L2.90137 8.76268C2.79349 9.23014 2.86854 9.47567 2.96703 9.5465C3.06553 9.61733 3.3188 9.61261 3.73154 9.37179L5.13391 8.53603C5.31214 8.42743 5.54196 8.37077 5.77178 8.37077Z" fill="#F26430"/>
</svg>
