<svg width="11" height="11" viewBox="0 0 11 11" fill="none" xmlns="http://www.w3.org/2000/svg">
<path d="M8.18329 10.2973C7.93471 10.2973 7.61578 10.217 7.21711 9.98091L5.81472 9.14515C5.66933 9.06015 5.38791 9.06015 5.24721 9.14515L3.84015 9.98091C3.00997 10.4767 2.52219 10.2784 2.30175 10.1178C2.086 9.9573 1.7483 9.5465 1.96874 8.60214L2.30175 7.15254C2.33927 7.00144 2.26423 6.74174 2.15166 6.62842L0.988483 5.45741C0.406894 4.87191 0.453796 4.3714 0.53353 4.12585C0.613264 3.88031 0.866536 3.44591 1.67326 3.30897L3.16944 3.05872C3.31015 3.03511 3.51183 2.88401 3.5728 2.75652L4.40297 1.08972C4.77818 0.32951 5.27066 0.216187 5.52862 0.216187C5.78658 0.216187 6.27906 0.32951 6.65428 1.08972L7.47976 2.7518C7.54542 2.87929 7.7471 3.03039 7.88781 3.054L9.38399 3.30425C10.1954 3.44118 10.4487 3.87559 10.5237 4.12112C10.5988 4.36667 10.6457 4.86719 10.0688 5.45269L8.90559 6.62842C8.79302 6.74174 8.72267 6.99672 8.7555 7.15254L9.08851 8.60214C9.30426 9.5465 8.97125 9.9573 8.7555 10.1178C8.63825 10.2028 8.45064 10.2973 8.18329 10.2973ZM5.52862 8.37077C5.75844 8.37077 5.98826 8.42743 6.17118 8.53603L7.57356 9.37179C7.98161 9.61733 8.23958 9.61733 8.33807 9.5465C8.43657 9.47567 8.50692 9.22542 8.40374 8.76268L8.07073 7.31308C7.98161 6.92117 8.12701 6.41594 8.40843 6.12791L9.5716 4.9569C9.80142 4.72553 9.90461 4.49888 9.85771 4.34306C9.80612 4.18723 9.59036 4.05974 9.27143 4.0078L7.77524 3.75755C7.4141 3.69616 7.02012 3.40341 6.85596 3.07288L6.03048 1.4108C5.88039 1.10861 5.69278 0.92918 5.52862 0.92918C5.36446 0.92918 5.17685 1.10861 5.03146 1.4108L4.20129 3.07288C4.03714 3.40341 3.64316 3.69616 3.28201 3.75755L1.79051 4.0078C1.47158 4.05974 1.25583 4.18723 1.20423 4.34306C1.15264 4.49888 1.26052 4.73025 1.49034 4.9569L2.65352 6.12791C2.93493 6.41122 3.08033 6.92117 2.99121 7.31308L2.65821 8.76268C2.55033 9.23014 2.62537 9.47567 2.72387 9.5465C2.82236 9.61733 3.07564 9.61261 3.48838 9.37179L4.89075 8.53603C5.06898 8.42743 5.2988 8.37077 5.52862 8.37077Z" fill="#F26430"/>
<path d="M8.41381 6.93697L9.66552 5.25679L10.5 4.4167L10.0828 3.99665L8.41381 3.57661L7.16211 3.15656L6.74487 1.89643L5.9104 0.636292H5.49316L5.07593 1.05634L4.24145 1.89643L3.82422 3.15656L2.98975 3.57661H1.3208L0.903564 4.4167L1.3208 5.25679L2.57251 6.93697V7.35701L2.15527 9.45724L2.57251 9.87729H2.98975L4.24145 9.45724L5.49316 8.61715L5.9104 9.0372L7.57934 9.87729H8.41381L8.83105 9.45724L8.41381 6.93697Z" fill="#F26430"/>
</svg>
